<?xml version="1.0" encoding="UTF-8" standalone="no"?>
<svg
   xmlns:dc="http://purl.org/dc/elements/1.1/"
   xmlns:cc="http://creativecommons.org/ns#"
   xmlns:rdf="http://www.w3.org/1999/02/22-rdf-syntax-ns#"
   xmlns:svg="http://www.w3.org/2000/svg"
   xmlns="http://www.w3.org/2000/svg"
   xmlns:sodipodi="http://sodipodi.sourceforge.net/DTD/sodipodi-0.dtd"
   xmlns:inkscape="http://www.inkscape.org/namespaces/inkscape"
   id="svg"
   version="1.1"
   viewBox="0 0 300 300"
   width="300"
   height="300"
   sodipodi:docname="SC-Courrier-UEX_Logo_01.svg"
   inkscape:version="0.92.3 (2405546, 2018-03-11)">
  <metadata
     id="metadata110">
    <rdf:RDF>
      <cc:Work
         rdf:about="">
        <dc:format>image/svg+xml</dc:format>
        <dc:type
           rdf:resource="http://purl.org/dc/dcmitype/StillImage" />
      </cc:Work>
    </rdf:RDF>
  </metadata>
  <defs
     id="defs108">
    <clipPath
       id="clip-1">
      <rect
         style="fill:none"
         x="0"
         y="0"
         transform="scale(0.14648)"
         width="2048"
         height="2048"
         id="rect2" />
    </clipPath>
    <clipPath
       id="clipPath4634">
      <rect
         style="fill:none"
         x="0"
         y="0"
         transform="scale(0.14648)"
         width="2048"
         height="2048"
         id="rect4632" />
    </clipPath>
  </defs>
  <sodipodi:namedview
     pagecolor="#ffffff"
     bordercolor="#666666"
     borderopacity="1"
     objecttolerance="10"
     gridtolerance="10"
     guidetolerance="10"
     inkscape:pageopacity="0"
     inkscape:pageshadow="2"
     inkscape:window-width="1130"
     inkscape:window-height="844"
     id="namedview106"
     showgrid="false"
     inkscape:zoom="0.78666667"
     inkscape:cx="-8.2627119"
     inkscape:cy="150"
     inkscape:window-x="0"
     inkscape:window-y="0"
     inkscape:window-maximized="0"
     inkscape:current-layer="layer2" />
  <g
     inkscape:groupmode="layer"
     id="layer1"
     inkscape:label="Fondo"
     style="display:inline">
    <svg
       height="100%"
       width="100%"
       version="1.1"
       id="svg103">
      <defs
         id="defs5">
        <clipPath
           id="clipPath4750">
          <rect
             style="fill:none"
             x="0"
             y="0"
             transform="scale(0.14648)"
             width="2048"
             height="2048"
             id="rect4748" />
        </clipPath>
      </defs>
      <path
         id="path7"
         d="M -1.2711895,-8.4745761e-7 H 298.72881 V 300 H -1.2711895 Z"
         inkscape:connector-curvature="0"
         style="font-family:none;mix-blend-mode:normal;fill:#11283e;fill-rule:nonzero;stroke:none;stroke-width:1;stroke-linecap:butt;stroke-linejoin:miter;stroke-miterlimit:10;stroke-dasharray:none;stroke-dashoffset:0" />
    </svg>
  </g>
  <g
     inkscape:groupmode="layer"
     id="layer2"
     inkscape:label="Logo"
     style="display:inline">
    <path
       id="path9"
       d="m 111.85094,113.82662 0.5397,0.1347 c 0.35616,0.38947 0.66416,8.23551 0.443,9.00788 -0.95765,3.34342 -3.60818,8.02219 -1.22606,11.50047 4.02432,5.87639 9.39596,11.02898 13.57627,16.8922 3.40191,4.81114 10.19407,2.22764 13.42085,5.18657 4.08755,3.74714 6.1588,7.77362 5.73084,13.39433 -0.4448,5.84133 5.97795,10.94072 9.06327,15.20029 1.75844,2.30059 4.11495,5.00508 6.08288,6.97651 3.63504,3.64571 7.99711,2.68492 12.57942,2.44116 -2.9922,2.90377 -8.50028,7.18468 -11.8542,9.96568 l -26.1831,21.42239 c -5.40492,4.37701 -10.766,8.80739 -16.0823,13.28936 -3.42875,2.87175 -6.78446,5.77907 -10.40358,8.44619 -3.32473,2.42158 -8.333205,0.94658 -8.158972,-3.64217 0.143792,-3.7845 4.140372,-6.31285 6.965512,-8.49066 6.88743,-5.31289 13.4622,-11.03325 20.12168,-16.62726 3.49806,-2.93758 7.20563,-5.70255 10.63511,-8.72376 1.27657,-1.12272 2.57033,-3.16353 2.53577,-4.9179 -0.13879,-2.62264 -2.82496,-5.48904 -5.64399,-4.61364 -2.16402,0.67434 -4.32912,2.63509 -6.09042,4.06029 -3.42428,2.76855 -6.81401,5.57801 -10.16828,8.42839 -2.41579,2.07818 -4.86184,4.43927 -7.51255,6.17583 -5.15014,3.37528 -8.90372,-0.16013 -8.39142,-5.71322 1.97278,-2.38422 6.602,-6.0086 9.18826,-8.15973 5.31003,-4.44283 10.65875,-8.83939 16.04507,-13.19149 3.76504,-3.03187 11.50358,-7.09928 6.75957,-12.71287 -3.86281,-4.56917 -11.11053,3.03898 -14.22735,5.64739 l -11.51487,9.59381 -36.239267,29.61059 c -7.412097,6.16161 -14.907993,12.15596 -22.283919,18.35671 -3.639885,3.09238 -7.314328,6.1456 -11.022608,9.15612 -2.157924,1.74013 -4.132498,3.45712 -6.470022,4.86808 -8.147522,5.19902 -17.345266,-1.75257 -14.748441,-10.69163 1.177893,-4.05495 11.586487,-11.7236 15.02796,-14.35691 11.341528,-8.67749 22.068675,-17.8692 33.044733,-26.92211 l 26.130259,-21.38503 16.271235,-13.45127 c 2.21523,-1.84154 4.54041,-3.59768 6.68131,-5.48727 1.96077,-1.73122 2.70785,-4.11723 1.61537,-6.49077 -0.97394,-2.29526 -3.59154,-3.32189 -5.92208,-2.35575 -2.61868,1.08357 -5.01369,3.42509 -7.19168,5.23993 l -12.168456,10.06711 c -2.917174,2.40735 -7.036776,6.59397 -10.945436,6.85197 -2.642666,0.17435 -4.52931,-2.48921 -4.399659,-4.96772 0.125348,-2.39846 1.850656,-3.99089 3.590107,-5.45702 4.820469,-4.13859 9.782578,-8.10991 14.616469,-12.2307 1.556087,-1.32733 2.85038,-3.03721 2.892285,-5.15277 0.03398,-1.49102 -0.567645,-2.92707 -1.656546,-3.95406 -1.922462,-1.84403 -3.743926,-1.46113 -5.830938,-0.071 -2.793612,1.86148 -5.345843,4.16918 -7.911691,6.33456 L 65.907158,165.0551 c -2.429926,2.03015 -8.332853,7.74871 -11.362478,7.72914 -1.366453,-0.0143 -2.664866,-0.59428 -3.582578,-1.60134 -4.392325,-4.89833 3.476215,-9.88206 6.750264,-12.61146 l 10.99987,-9.16857 29.415409,-24.3509 c 4.534135,-3.7167 9.257735,-7.45494 13.723295,-11.22539 z"
       inkscape:connector-curvature="0"
       style="font-family:none;display:inline;mix-blend-mode:normal;fill:#fefefd;fill-rule:nonzero;stroke:none;stroke-width:1.21853077;stroke-linecap:butt;stroke-linejoin:miter;stroke-miterlimit:10;stroke-dasharray:none;stroke-dashoffset:0" />
    <path
       id="path11"
       d="m 40.398784,231.39872 c 2.843218,-0.64765 5.673184,1.13162 6.300448,3.96244 0.627447,2.83082 -1.188467,5.62605 -4.042784,6.22387 -2.818684,0.59072 -5.589913,-1.18499 -6.209487,-3.98022 -0.619575,-2.797 1.144057,-5.56555 3.951811,-6.20609 z"
       inkscape:connector-curvature="0"
       style="font-family:none;display:inline;mix-blend-mode:normal;fill:#11283e;fill-rule:nonzero;stroke:none;stroke-width:1.21853077;stroke-linecap:butt;stroke-linejoin:miter;stroke-miterlimit:10;stroke-dasharray:none;stroke-dashoffset:0" />
    <path
       id="path13"
       d="m 87.161611,194.0074 c 2.828536,-0.46973 5.512019,1.40562 6.021465,4.21153 0.509263,2.80412 -1.344791,5.49439 -4.160247,6.03528 -1.542299,0.29714 -3.137248,-0.10859 -4.34558,-1.1067 -1.208344,-0.99639 -1.902585,-2.4803 -1.891302,-4.04072 0.01809,-2.53189 1.864079,-4.68125 4.375664,-5.09938 z"
       inkscape:connector-curvature="0"
       style="font-family:none;display:inline;mix-blend-mode:normal;fill:#11283e;fill-rule:nonzero;stroke:none;stroke-width:1.21853077;stroke-linecap:butt;stroke-linejoin:miter;stroke-miterlimit:10;stroke-dasharray:none;stroke-dashoffset:0" />
    <path
       id="path15"
       d="m 63.571052,212.96194 c 2.846262,-0.52844 5.583825,1.3398 6.106168,4.1706 0.52233,2.83082 -1.369326,5.54243 -4.21934,6.05129 -2.835515,0.50709 -5.548912,-1.36114 -6.068566,-4.17594 -0.519652,-2.81659 1.350159,-5.5193 4.181738,-6.04596 z"
       inkscape:connector-curvature="0"
       style="font-family:none;display:inline;mix-blend-mode:normal;fill:#11283e;fill-rule:nonzero;stroke:none;stroke-width:1.21853077;stroke-linecap:butt;stroke-linejoin:miter;stroke-miterlimit:10;stroke-dasharray:none;stroke-dashoffset:0" />
    <path
       id="path17"
       d="m 250.32923,87.340971 c 1.85513,1.433915 10.96065,12.455046 12.81399,15.097629 0.43871,0.89444 -1.87125,2.78543 -2.4568,3.41796 -7.16803,7.7352 -15.09529,15.18178 -22.03949,23.04899 -2.98504,3.38257 -2.28847,11.38216 -5.99694,14.92629 -2.58392,2.46891 -5.16963,4.57823 -7.8431,6.84502 l -13.99763,12.00472 c -2.36366,2.0337 -6.26731,4.79869 -7.27725,7.68289 0.41544,1.5711 1.8032,4.19374 3.8374,2.8237 2.44067,-1.64405 4.85807,-3.94998 7.11609,-5.88404 l 15.39972,-13.24488 c 1.46476,-1.2615 4.62528,-4.1706 6.09004,-4.99974 0.56765,1.75436 1.69039,9.69701 2.07001,12.03675 l 1.56862,9.65786 c 0.27039,1.67251 0.79148,4.30228 0.76998,5.88761 -1.07976,1.66895 -9.21118,4.54069 -11.32953,5.3894 l -11.24716,4.63144 c -7.86459,2.98383 -10.12262,1.37181 -16.86625,-2.68313 -2.78807,-1.67607 -3.84993,-2.08175 -5.526,-5.03889 -0.9974,-0.54446 -2.52483,-1.04087 -3.62252,-1.4928 -3.60459,-1.48569 -5.83397,-3.55143 -7.84131,-6.81638 1.77991,-2.72407 5.22337,-4.70084 7.79655,-6.74521 6.32463,-5.11362 12.5436,-10.35534 18.65514,-15.71806 2.50334,-2.21608 4.89567,-4.18199 6.9997,-6.82439 2.11835,-2.66 2.07,-9.83313 3.61176,-11.80633 3.22678,-4.1288 9.81284,-10.1904 14.27875,-13.13562 3.62788,1.35652 6.51085,2.15024 9.51917,-1.25794 1.37702,-1.54067 2.05748,-3.57473 1.88378,-5.62747 -0.34559,-3.83112 -3.61893,-6.00664 -7.33456,-5.40613 -4.78286,0.77309 -5.1571,4.56791 -7.3059,7.77291 -0.65717,0.97878 -7.4975,7.09822 -8.34271,7.21975 -0.25069,-0.53378 -0.13251,-1.07183 -0.13251,-1.64067 -0.011,-5.8303 4.32087,-9.14472 8.1726,-12.91944 6.00947,-5.886719 12.34305,-11.514172 18.57634,-17.201787 z"
       inkscape:connector-curvature="0"
       style="font-family:none;display:inline;mix-blend-mode:normal;fill:#fefefd;fill-rule:nonzero;stroke:none;stroke-width:1.21853077;stroke-linecap:butt;stroke-linejoin:miter;stroke-miterlimit:10;stroke-dasharray:none;stroke-dashoffset:0" />
    <path
       id="path19"
       d="m 221.44582,45.861419 c 1.15856,0.164051 2.07896,1.237131 2.70747,2.141351 3.03699,4.36775 -2.51946,7.42809 -3.17126,11.669507 -0.5569,3.617074 0.35276,5.151696 2.31175,7.999764 -0.87026,0.882344 -1.81215,1.560773 -2.80956,2.296328 -4.99236,3.682021 -9.74299,7.659043 -14.81415,11.233762 -3.03697,2.140816 -7.37933,3.28488 -11.0663,3.172793 -0.24353,-0.0073 -0.27039,-0.214227 -0.36709,-0.394639 0.29904,-1.549392 7.27727,-6.890573 8.77247,-7.811701 3.16231,-1.948829 8.64353,-3.646783 8.0759,-8.416826 -0.17907,-1.481237 -0.97591,-2.819426 -2.19714,-3.687 -2.39412,-1.711123 -6.21719,-1.196915 -7.85923,1.322702 -1.53281,2.353087 -0.87384,5.134084 -0.2865,7.667935 -2.41202,1.660774 -4.76138,3.40694 -7.04627,5.234959 -2.21504,1.769122 -6.97642,5.84294 -9.49051,6.719587 -4.79181,1.67144 -10.13874,0.920412 -14.77477,4.175412 -2.42635,1.702765 -4.73272,3.904961 -7.00508,5.885997 l -11.97059,10.25997 c -1.86587,1.63301 -11.23999,10.18489 -12.88024,9.8454 -2.81725,-1.99527 -8.8457,-17.745533 -10.49239,-21.974673 -0.71734,-1.933174 -1.71438,-4.193912 -1.7826,-6.266768 -0.0132,-0.402109 0.31175,-1.067384 0.53075,-1.400817 5.15264,-7.850666 10.45336,-15.617703 15.67188,-23.42638 0.44929,-0.672211 1.16071,-1.354028 1.77903,-1.859164 1.64777,-0.246075 22.34228,6.130654 25.20915,7.244825 -3.74249,4.127906 -28.05057,22.666996 -29.08951,25.36222 -0.27594,0.715807 -0.15204,1.535335 0.20396,2.19919 0.43244,0.806537 1.31488,1.568239 2.23904,1.737096 0.74957,0.137002 1.51759,-0.280061 2.12731,-0.662419 1.59137,-0.998169 2.98163,-2.512328 4.38498,-3.755506 2.29741,-2.037267 4.6414,-4.027552 6.97106,-6.030299 3.30914,-2.845761 16.59228,-14.889803 19.7367,-15.869294 4.19372,-1.307228 8.9372,-0.0024 12.80682,-2.301125 3.88574,-2.307709 7.54227,-5.185682 11.24179,-7.787154 7.29874,-5.133368 14.55451,-10.124924 22.33315,-14.525057 z"
       inkscape:connector-curvature="0"
       style="font-family:none;display:inline;mix-blend-mode:normal;fill:#fefefd;fill-rule:nonzero;stroke:none;stroke-width:1.21853077;stroke-linecap:butt;stroke-linejoin:miter;stroke-miterlimit:10;stroke-dasharray:none;stroke-dashoffset:0" />
    <path
       id="path21"
       d="m 232.97411,208.58671 c 5.39348,-0.37186 9.98294,2.47141 11.98133,7.46047 1.18363,2.90555 1.1335,6.16517 -0.13788,9.03335 -2.75046,6.29506 -9.42606,8.98886 -15.80261,6.20254 -2.92057,1.71877 -6.73648,4.65279 -9.84149,6.63311 -18.03019,11.49051 -41.1208,16.87814 -62.43149,15.94402 -6.37835,-0.27934 -11.95681,-1.22592 -18.11955,-2.47852 -3.55608,-0.68857 -10.10096,-2.40914 -13.32792,-3.79518 2.30298,-2.2063 5.88394,-5.41076 8.3633,-7.37507 3.97438,1.17253 11.78918,2.69381 15.9412,3.24716 22.75217,3.01231 45.85173,-1.90737 65.36281,-13.921 2.52484,-1.54974 5.10697,-3.10304 7.4617,-4.89477 -0.4602,-4.21508 -0.65718,-7.2434 1.89451,-10.94251 2.27952,-3.30409 4.85449,-4.40902 8.65607,-5.11361 z"
       inkscape:connector-curvature="0"
       style="font-family:none;display:inline;mix-blend-mode:normal;fill:#fefefd;fill-rule:nonzero;stroke:none;stroke-width:1.21853077;stroke-linecap:butt;stroke-linejoin:miter;stroke-miterlimit:10;stroke-dasharray:none;stroke-dashoffset:0" />
    <path
       id="path23"
       d="m 91.909919,20.673023 c 1.269221,0.352296 1.213172,1.317018 1.40227,2.564108 0.74832,4.934797 2.61867,9.15968 4.516417,13.680792 5.117004,12.192266 16.097344,12.824259 26.866934,16.728499 -2.83105,1.00653 -6.9082,2.119292 -9.80012,3.051085 -11.2989,3.143253 -16.466039,9.937043 -19.778954,20.650014 -0.579454,1.873752 -1.818238,8.299041 -2.668093,9.588123 C 91.670506,86.460218 91.518486,84.007858 91.318998,83.014495 89.844385,75.67483 86.561925,65.899883 80.006296,61.514168 74.199001,57.629129 66.140117,55.552192 59.450009,53.774884 66.140104,51.852024 73.766371,50.171329 79.66607,46.194136 87.632013,40.823767 90.347206,29.568468 91.909919,20.673023 Z"
       inkscape:connector-curvature="0"
       style="font-family:none;display:inline;mix-blend-mode:normal;fill:#fefefd;fill-rule:nonzero;stroke:none;stroke-width:1.21853077;stroke-linecap:butt;stroke-linejoin:miter;stroke-miterlimit:10;stroke-dasharray:none;stroke-dashoffset:0" />
    <path
       id="path25"
       d="m 159.94547,23.213822 c 15.97273,-0.801558 38.12323,4.043743 52.29633,11.623786 1.74948,0.935717 4.46592,2.271233 5.96828,3.472605 -1.651,1.066314 -7.71418,4.935695 -9.34548,5.007213 -1.1299,0.04983 -10.42166,-4.127189 -12.3108,-4.775556 -8.63818,-3.028141 -17.67386,-4.78695 -26.82236,-5.220907 -2.19714,-0.06797 -5.32543,-0.361017 -7.47243,-0.264404 -9.03033,0.406567 -19.45306,1.503661 -28.16088,3.935566 -4.06624,1.135708 -9.96057,3.698917 -13.86081,5.368766 -2.89389,-1.276267 -7.98242,-3.059101 -10.41361,-4.668619 1.39564,-1.268796 4.46502,-2.761427 6.24386,-3.648035 13.70359,-6.830435 28.64829,-10.125822 43.87789,-10.830403 z"
       inkscape:connector-curvature="0"
       style="font-family:none;display:inline;mix-blend-mode:normal;fill:#fefefd;fill-rule:nonzero;stroke:none;stroke-width:1.21853077;stroke-linecap:butt;stroke-linejoin:miter;stroke-miterlimit:10;stroke-dasharray:none;stroke-dashoffset:0" />
    <path
       id="path27"
       d="m 273.03843,106.34586 0.2507,0.0735 c 0.65537,0.72149 1.0744,3.97418 1.32866,5.02857 6.82959,28.30423 2.15776,58.46995 -12.28215,83.72667 -2.89731,5.06557 -6.56637,11.26455 -10.72966,15.41735 l -1.05292,-1.44119 c -1.23913,-1.56755 -3.64042,-4.40369 -4.55723,-5.99081 0.71268,-1.37003 2.09508,-3.192 3.00293,-4.53001 1.60086,-2.36287 3.1265,-4.77556 4.57694,-7.2345 10.90156,-18.88871 15.87424,-40.58333 14.28233,-62.29966 -0.25248,-3.14343 -0.83804,-8.64651 -1.65457,-11.6583 0.73237,-2.09917 5.47584,-9.53154 6.83496,-11.09159 z"
       inkscape:connector-curvature="0"
       style="font-family:none;display:inline;mix-blend-mode:normal;fill:#fefefd;fill-rule:nonzero;stroke:none;stroke-width:1.21853077;stroke-linecap:butt;stroke-linejoin:miter;stroke-miterlimit:10;stroke-dasharray:none;stroke-dashoffset:0" />
    <path
       id="path29"
       d="m 73.265885,68.08394 c 1.236986,0.583602 4.983063,5.386026 5.724392,6.690047 -14.865551,21.144471 -22.401383,43.776413 -20.771338,69.679883 -1.608016,1.52715 -4.391958,3.67507 -6.227933,5.27642 -1.048793,0.90921 -1.801587,1.49635 -2.928457,2.31126 -3.515613,-24.96581 3.176634,-52.215825 16.322438,-73.529863 2.241368,-3.633981 4.494203,-7.743024 7.880886,-10.427759 z"
       inkscape:connector-curvature="0"
       style="font-family:none;display:inline;mix-blend-mode:normal;fill:#fefefd;fill-rule:nonzero;stroke:none;stroke-width:1.21853077;stroke-linecap:butt;stroke-linejoin:miter;stroke-miterlimit:10;stroke-dasharray:none;stroke-dashoffset:0" />
    <path
       id="path31"
       d="m 245.05394,58.903988 c 2.73792,1.04603 8.1314,7.872724 9.93459,10.432036 0.70015,0.993544 1.43254,2.963545 1.83542,4.118297 -1.69396,1.831931 -4.4856,4.111715 -6.42668,5.815185 l -10.63296,9.374612 c -1.02426,0.90654 -8.40538,7.634666 -9.10195,7.785015 l -0.42616,-0.293765 c -5.62448,-5.328546 -8.00069,-8.100469 -12.50779,-14.328622 2.03061,-4.64175 16.58513,-14.115464 20.90063,-18.08911 1.14603,-1.056355 5.09981,-3.95692 6.42491,-4.813636 z"
       inkscape:connector-curvature="0"
       style="font-family:none;display:inline;mix-blend-mode:normal;fill:#fefefd;fill-rule:nonzero;stroke:none;stroke-width:1.21853077;stroke-linecap:butt;stroke-linejoin:miter;stroke-miterlimit:10;stroke-dasharray:none;stroke-dashoffset:0" />
    <path
       id="path33"
       d="m 287.50161,54.076481 0.18803,0.361721 c -0.22742,5.327845 -1.2857,15.486038 -2.77732,20.400745 -1.01351,3.340935 -15.88498,23.34649 -17.71682,23.53918 -1.16213,-0.738214 -4.88135,-5.15863 -6.04886,-6.488457 -1.87304,-2.204867 -5.57254,-5.925684 -7.03194,-8.186422 3.73174,-3.575084 8.05441,-7.245177 11.95626,-10.683977 z"
       inkscape:connector-curvature="0"
       style="font-family:none;display:inline;mix-blend-mode:normal;fill:#fefefd;fill-rule:nonzero;stroke:none;stroke-width:1.21853077;stroke-linecap:butt;stroke-linejoin:miter;stroke-miterlimit:10;stroke-dasharray:none;stroke-dashoffset:0" />
    <path
       id="path35"
       d="m 249.09904,33.168112 c 1.02784,-0.03914 2.2258,0.0023 3.26617,0.04697 5.23233,0.225074 10.63297,-0.132372 15.84381,0.199275 -10.32498,7.871133 -20.87199,16.303798 -31.08593,24.38096 -2.76479,2.161817 -5.50987,4.345863 -8.23885,6.551796 -1.23556,-1.177879 -1.42896,-1.61344 -2.01629,-3.145038 1.12454,-3.336126 3.81054,-6.402699 4.21344,-10.221367 0.37605,-3.55356 -0.75029,-5.284603 -2.77016,-7.900492 4.38176,-2.938997 9.44755,-5.585652 14.11761,-8.060448 2.15595,-1.143178 4.24565,-1.656318 6.67021,-1.851681 z"
       inkscape:connector-curvature="0"
       style="font-family:none;display:inline;mix-blend-mode:normal;fill:#fefefd;fill-rule:nonzero;stroke:none;stroke-width:1.21853077;stroke-linecap:butt;stroke-linejoin:miter;stroke-miterlimit:10;stroke-dasharray:none;stroke-dashoffset:0" />
    <path
       id="path37"
       d="m 200.12439,94.108244 c 0.0967,0.06892 0.27756,0.179353 0.30979,0.295719 2.0915,7.634127 7.25755,12.544547 13.41565,17.313707 -2.07179,2.30041 -18.14837,16.08262 -20.13063,16.1924 -0.13968,-0.56777 0.0681,-0.76117 0.30798,-1.42929 2.35293,-6.34665 -0.83981,-14.41634 -8.25316,-14.97449 -2.60541,-0.19608 -3.86425,0.0181 -6.45176,0.55424 4.0863,-4.99779 9.82717,-9.37977 14.8464,-13.459272 1.53639,-1.248696 4.32982,-3.514413 5.95574,-4.493004 z"
       inkscape:connector-curvature="0"
       style="font-family:none;display:inline;mix-blend-mode:normal;fill:#fefefd;fill-rule:nonzero;stroke:none;stroke-width:1.21853077;stroke-linecap:butt;stroke-linejoin:miter;stroke-miterlimit:10;stroke-dasharray:none;stroke-dashoffset:0" />
    <path
       id="path39"
       d="m 260.57899,46.256763 c 0.0663,-0.0023 0.13251,-0.0076 0.19877,-0.0065 2.61258,0.03755 5.12129,2.101498 6.79556,3.936454 1.64204,1.799548 5.04968,6.390064 4.83122,8.891 -0.154,1.756137 -9.3025,9.050957 -11.17732,10.687171 -0.40468,-0.544987 -1.53459,-4.037341 -2.25087,-5.025359 -0.85594,-1.494053 -2.79522,-2.520151 -3.83561,-3.752653 -1.93571,-2.293303 -3.65474,-3.91849 -5.95038,-5.840451 1.94108,-1.812546 9.22193,-7.468308 11.38863,-8.889579 z"
       inkscape:connector-curvature="0"
       style="font-family:none;display:inline;mix-blend-mode:normal;fill:#fefefd;fill-rule:nonzero;stroke:none;stroke-width:1.21853077;stroke-linecap:butt;stroke-linejoin:miter;stroke-miterlimit:10;stroke-dasharray:none;stroke-dashoffset:0" />
    <path
       id="path41"
       d="m 158.91584,134.63515 c 0.0735,0.008 0.14863,0.008 0.21847,0.0252 0.88279,0.20267 8.52535,9.18636 9.62481,10.57152 -3.35928,3.98592 -8.84229,8.01241 -13.12913,10.91617 -0.56407,0.40034 -0.49065,0.49464 -1.04934,0.48575 -1.24093,-1.27929 -7.44074,-9.26822 -8.27214,-10.61476 0.96982,-1.37076 10.985,-10.16069 12.60735,-11.38395 z"
       inkscape:connector-curvature="0"
       style="font-family:none;display:inline;mix-blend-mode:normal;fill:#fefefd;fill-rule:nonzero;stroke:none;stroke-width:1.21853077;stroke-linecap:butt;stroke-linejoin:miter;stroke-miterlimit:10;stroke-dasharray:none;stroke-dashoffset:0" />
    <path
       id="path43"
       d="m 211.60612,84.85907 c 0.94367,0.491434 13.00023,15.014535 13.88481,16.494 -1.25526,1.34298 -4.55008,4.22736 -6.13481,4.92911 -6.4464,-1.31951 -13.19182,-8.807388 -13.57861,-15.411128 -0.11283,-1.89955 4.32446,-4.83641 5.82862,-6.01197 z"
       inkscape:connector-curvature="0"
       style="font-family:none;display:inline;mix-blend-mode:normal;fill:#fefefd;fill-rule:nonzero;stroke:none;stroke-width:1.21853077;stroke-linecap:butt;stroke-linejoin:miter;stroke-miterlimit:10;stroke-dasharray:none;stroke-dashoffset:0" />
    <path
       id="path45"
       d="m 210.53173,124.84723 c 0.43513,0.1886 0.25605,0.0474 0.48526,0.49873 -0.0286,1.55935 -0.37424,2.50449 -0.90429,3.93217 -1.40566,1.18038 -4.17583,2.97476 -5.74444,4.02578 -2.65555,1.77715 -5.29858,3.5701 -7.93265,5.37926 -8.29614,5.54118 -16.42398,11.32826 -24.37093,17.35463 -0.89175,-0.33273 -1.74947,-0.69391 -2.62691,-1.05866 -0.63748,-0.35407 -1.00815,-0.48218 -1.42537,-1.04977 1.06544,-2.45894 36.74979,-25.54282 42.5193,-29.08214 z"
       inkscape:connector-curvature="0"
       style="font-family:none;display:inline;mix-blend-mode:normal;fill:#fefefd;fill-rule:nonzero;stroke:none;stroke-width:1.21853077;stroke-linecap:butt;stroke-linejoin:miter;stroke-miterlimit:10;stroke-dasharray:none;stroke-dashoffset:0" />
    <path
       id="path47"
       d="m 184.12839,96.667546 c 0.58912,-0.09163 0.59987,-0.09641 1.19079,-0.04286 l 0.12713,0.236284 c -1.61876,3.27563 -30.42338,33.90733 -33.69671,35.88356 -0.37247,-0.0954 -0.65538,-0.17703 -1.00457,-0.35248 -0.94189,-0.47364 -1.21944,-1.99687 -0.51213,-2.77797 1.72082,-1.89884 3.50433,-3.78236 5.26813,-5.65897 3.82128,-4.01028 7.62286,-8.03997 11.40295,-12.08905 l 9.45292,-10.03365 c 1.31435,-1.38535 2.79344,-3.035966 4.20089,-4.320061 0.54974,-0.50193 2.67704,-0.710824 3.57058,-0.844792 z"
       inkscape:connector-curvature="0"
       style="font-family:none;display:inline;mix-blend-mode:normal;fill:#fefefd;fill-rule:nonzero;stroke:none;stroke-width:1.21853077;stroke-linecap:butt;stroke-linejoin:miter;stroke-miterlimit:10;stroke-dasharray:none;stroke-dashoffset:0" />
    <path
       id="path49"
       d="m 257.99506,116.4829 0.26323,0.17774 c 0.20413,1.85757 -10.38585,18.78409 -11.24715,22.40312 -1.09947,4.61792 -0.45663,9.52425 -0.75924,14.07205 -0.11821,1.78638 -0.15221,13.18794 -0.65538,13.79645 l -0.29188,-0.1797 c -0.52825,-0.79356 -0.49781,-1.42164 -0.60166,-2.37889 -0.45125,-4.44994 -1.17827,-8.89991 -1.95003,-13.30715 -0.54436,-3.10482 -1.31973,-6.33722 -1.39135,-9.48991 -0.0465,-2.09544 0.33487,-3.97079 1.23198,-5.87016 2.13626,-4.52183 11.72706,-15.35614 15.40149,-19.22355 z"
       inkscape:connector-curvature="0"
       style="font-family:none;display:inline;mix-blend-mode:normal;fill:#fefefd;fill-rule:nonzero;stroke:none;stroke-width:1.21853077;stroke-linecap:butt;stroke-linejoin:miter;stroke-miterlimit:10;stroke-dasharray:none;stroke-dashoffset:0" />
    <path
       id="path51"
       d="m 202.37166,51.805952 c 0.41723,-0.06139 0.37783,-0.04181 0.80759,-0.01405 l 0.0609,0.188599 c -1.07082,1.003857 -17.84933,10.527045 -19.76535,11.415426 -10.07427,-0.682704 -17.81889,-2.909639 -27.26286,-5.986354 -1.61877,-0.579861 -3.31989,-1.104576 -4.83299,-1.903814 3.59385,-0.09643 14.13191,1.340861 17.36584,2.217146 10.29095,2.788647 15.75427,-0.113521 25.27881,-3.554266 2.47648,-0.894442 5.61552,-1.696 8.34807,-2.362696 z"
       inkscape:connector-curvature="0"
       style="font-family:none;display:inline;mix-blend-mode:normal;fill:#fefefd;fill-rule:nonzero;stroke:none;stroke-width:1.21853077;stroke-linecap:butt;stroke-linejoin:miter;stroke-miterlimit:10;stroke-dasharray:none;stroke-dashoffset:0" />
    <path
       id="path53"
       d="m 157.43854,165.24374 c 0.50318,0.16191 1.0565,0.40389 1.40747,0.8149 4.05765,4.772 7.87355,9.77174 11.75749,14.68431 0.5175,0.65299 1.06544,1.44121 0.92756,2.26678 -0.9204,1.13874 -2.75404,1.55509 -4.18478,2.03549 -0.42617,0.14946 -1.2839,0.32205 -1.72081,0.16903 -1.00816,-0.35052 -11.15943,-12.58298 -12.01178,-14.20212 -0.35813,-0.67968 -0.42618,-1.15474 -0.16116,-1.88424 0.58554,-1.60312 2.48185,-3.13507 3.98601,-3.88414 z"
       inkscape:connector-curvature="0"
       style="font-family:none;display:inline;mix-blend-mode:normal;fill:#fefefd;fill-rule:nonzero;stroke:none;stroke-width:1.21853077;stroke-linecap:butt;stroke-linejoin:miter;stroke-miterlimit:10;stroke-dasharray:none;stroke-dashoffset:0" />
    <path
       id="path55"
       d="m 123.60573,124.86911 c 0.96445,0.51208 14.09181,15.95932 15.14383,17.60372 -1.22231,1.37484 -2.3318,2.0467 -3.89309,3.00235 l -1.40388,0.66474 c -3.11146,-2.34846 -10.76135,-11.21936 -12.76457,-15.25207 -0.45697,-0.91988 2.10225,-4.80082 2.91771,-6.01874 z"
       inkscape:connector-curvature="0"
       style="font-family:none;display:inline;mix-blend-mode:normal;fill:#fefefd;fill-rule:nonzero;stroke:none;stroke-width:1.21853077;stroke-linecap:butt;stroke-linejoin:miter;stroke-miterlimit:10;stroke-dasharray:none;stroke-dashoffset:0" />
    <path
       id="path57"
       d="m 277.37005,33.100322 c 0.47273,-0.03736 1.21406,-0.07455 1.63846,0.07705 2.68241,0.958672 8.62742,9.359307 9.7609,11.613814 -0.14504,0.434673 -0.44946,1.359008 -0.74671,1.682299 -2.7057,2.944328 -6.73647,6.152893 -9.85045,8.617703 0.85595,-2.819608 1.94647,-4.560259 3.40406,-7.09501 0.77715,-1.288011 1.32508,-2.348095 2.00017,-3.697677 -0.68762,-1.112934 -4.15077,-5.458079 -5.08907,-6.049868 -1.7835,-1.123961 -10.39301,5.23994 -12.11384,3.861012 0.25963,-1.124678 9.38845,-8.083041 10.99646,-9.009331 z"
       inkscape:connector-curvature="0"
       style="font-family:none;display:inline;mix-blend-mode:normal;fill:#fefefd;fill-rule:nonzero;stroke:none;stroke-width:1.21853077;stroke-linecap:butt;stroke-linejoin:miter;stroke-miterlimit:10;stroke-dasharray:none;stroke-dashoffset:0" />
    <path
       id="path59"
       d="m 119.43313,91.00306 c 0.13466,-0.0024 0.36977,0.126324 0.51768,0.190032 0.92256,1.097271 5.58329,14.131128 5.93157,16.506088 0.14665,0.99907 -3.36877,4.32362 -4.44639,5.5257 -0.48259,0.42721 -0.21452,0.3523 -0.77142,0.38059 -0.46468,-0.6804 -1.65797,-6.88204 -1.90472,-7.98785 -0.69012,-3.00928 -1.45705,-6.00059 -2.3001,-8.97125 -0.27255,-0.975568 -1.34031,-3.762796 -1.05112,-4.547812 0.98236,-0.87397 2.69263,-0.918633 4.02452,-1.095486 z"
       inkscape:connector-curvature="0"
       style="font-family:none;display:inline;mix-blend-mode:normal;fill:#fefefd;fill-rule:nonzero;stroke:none;stroke-width:1.21853077;stroke-linecap:butt;stroke-linejoin:miter;stroke-miterlimit:10;stroke-dasharray:none;stroke-dashoffset:0" />
    <path
       id="path61"
       d="m 189.82448,184.47407 c 5.07833,2.66712 11.29192,6.34842 16.23774,9.30023 -0.53542,1.41631 -0.99202,2.56926 -1.62413,3.94108 l -3.52044,-1.47501 c -2.39413,-1.07646 -16.5135,-6.53348 -17.44286,-7.67042 0.20772,-0.81669 5.19472,-3.39308 6.3497,-4.09588 z"
       inkscape:connector-curvature="0"
       style="font-family:none;display:inline;mix-blend-mode:normal;fill:#fefefd;fill-rule:nonzero;stroke:none;stroke-width:1.21853077;stroke-linecap:butt;stroke-linejoin:miter;stroke-miterlimit:10;stroke-dasharray:none;stroke-dashoffset:0" />
    <path
       id="path63"
       d="m 181.92587,117.24353 c 2.95281,-0.84461 6.03633,0.85316 6.87973,3.78947 0.8452,2.93615 -0.87026,5.99577 -3.82665,6.82902 -2.94922,0.83074 -6.01662,-0.86722 -6.86003,-3.79537 -0.84162,-2.92814 0.86131,-5.98082 3.80695,-6.82312 z"
       inkscape:connector-curvature="0"
       style="font-family:none;display:inline;mix-blend-mode:normal;fill:#fefefd;fill-rule:nonzero;stroke:none;stroke-width:1.21853077;stroke-linecap:butt;stroke-linejoin:miter;stroke-miterlimit:10;stroke-dasharray:none;stroke-dashoffset:0" />
    <path
       id="path65"
       d="m 164.07654,162.53746 c 4.14538,-0.0836 6.23509,-0.42702 8.8029,3.45356 2.42814,3.66707 3.77293,7.58324 5.26097,11.67023 -0.48527,0.98926 -0.5766,1.1405 -1.3233,1.95007 l -0.41365,0.0872 c -0.90429,-0.80779 -12.7549,-15.8266 -13.13272,-16.67352 l 0.14326,-0.30425 z"
       inkscape:connector-curvature="0"
       style="font-family:none;display:inline;mix-blend-mode:normal;fill:#fefefd;fill-rule:nonzero;stroke:none;stroke-width:1.21853077;stroke-linecap:butt;stroke-linejoin:miter;stroke-miterlimit:10;stroke-dasharray:none;stroke-dashoffset:0" />
    <path
       id="path67"
       d="m 130.28241,120.76043 c 3.1718,0.89746 9.11053,5.26343 11.63877,7.57718 1.53495,1.40473 1.40406,5.88102 -0.0885,7.20123 -0.62261,0.16424 -0.71662,0.17508 -1.36233,0.22526 -1.75359,-0.57168 -9.72205,-11.23555 -11.38863,-13.24968 0.008,-0.16725 0.0184,-0.3345 0.0278,-0.50176 0.35526,-0.66776 0.56011,-0.76224 1.17288,-1.25224 z"
       inkscape:connector-curvature="0"
       style="font-family:none;display:inline;mix-blend-mode:normal;fill:#fefefd;fill-rule:nonzero;stroke:none;stroke-width:1.21853077;stroke-linecap:butt;stroke-linejoin:miter;stroke-miterlimit:10;stroke-dasharray:none;stroke-dashoffset:0" />
    <path
       id="path69"
       d="m 243.22567,182.73039 c 0.36709,-0.0605 0.3832,-0.0143 0.77178,0.0428 0.24532,0.24731 0.33844,0.3683 0.44408,0.71171 0.11455,0.37009 0.0501,0.69035 -0.14683,1.02663 -1.97152,3.34324 -24.17754,9.72014 -28.80283,10.98698 -0.51929,0.0782 -0.52108,0.0747 -1.04575,0.0178 l -0.12713,-0.27401 c 0.39037,-0.72772 1.23555,-1.37893 1.9751,-1.72054 8.73844,-4.03183 17.99259,-7.26832 26.93158,-10.79127 z"
       inkscape:connector-curvature="0"
       style="font-family:none;display:inline;mix-blend-mode:normal;fill:#fefefd;fill-rule:nonzero;stroke:none;stroke-width:1.21853077;stroke-linecap:butt;stroke-linejoin:miter;stroke-miterlimit:10;stroke-dasharray:none;stroke-dashoffset:0" />
    <path
       id="path71"
       d="m 21.36421,188.56105 c 2.742049,-0.7722 5.59672,0.80601 6.378524,3.53007 0.781802,2.72407 -0.804723,5.56199 -3.54516,6.34131 -2.744555,0.78111 -5.606573,-0.79711 -6.389623,-3.52651 -0.783062,-2.72762 0.809736,-5.56911 3.556259,-6.34487 z"
       inkscape:connector-curvature="0"
       style="font-family:none;display:inline;mix-blend-mode:normal;fill:#fefefd;fill-rule:nonzero;stroke:none;stroke-width:1.21853077;stroke-linecap:butt;stroke-linejoin:miter;stroke-miterlimit:10;stroke-dasharray:none;stroke-dashoffset:0" />
    <path
       id="path73"
       d="m 135.7314,55.499354 c 0.14845,-0.0091 0.29724,-0.01547 0.44588,-0.01903 0.70767,-0.0153 1.34586,0.04876 1.87482,0.548013 0.0815,1.289615 -8.04205,12.781018 -9.28423,14.795511 -1.0735,1.741196 -3.10036,5.086396 -4.2736,6.818872 -0.94548,1.396905 -1.94843,2.75448 -3.00617,4.069542 l -0.48778,0.517416 c -0.65752,0.209781 -0.34935,0.214045 -0.95388,0.08928 l -0.12731,-0.376844 c 0.7587,-3.842513 12.90997,-23.47442 15.81229,-26.442776 z"
       inkscape:connector-curvature="0"
       style="font-family:none;display:inline;mix-blend-mode:normal;fill:#fefefd;fill-rule:nonzero;stroke:none;stroke-width:1.21853077;stroke-linecap:butt;stroke-linejoin:miter;stroke-miterlimit:10;stroke-dasharray:none;stroke-dashoffset:0" />
    <path
       id="path75"
       d="m 37.363254,175.56704 c 2.740791,-0.83625 5.641842,0.70815 6.460537,3.43755 0.818513,2.73119 -0.759237,5.60114 -3.513461,6.39114 -2.722173,0.7811 -5.569327,-0.76331 -6.37834,-3.46247 -0.809027,-2.69736 0.722527,-5.54063 3.431264,-6.36622 z"
       inkscape:connector-curvature="0"
       style="font-family:none;display:inline;mix-blend-mode:normal;fill:#fefefd;fill-rule:nonzero;stroke:none;stroke-width:1.21853077;stroke-linecap:butt;stroke-linejoin:miter;stroke-miterlimit:10;stroke-dasharray:none;stroke-dashoffset:0" />
    <path
       id="path77"
       d="m 64.161973,180.53121 c 2.776241,-0.57113 5.494294,1.19745 6.076438,3.95532 0.582328,2.75786 -1.190789,5.46235 -3.963986,6.04773 -2.783943,0.58893 -5.519366,-1.18144 -6.103833,-3.9482 -0.584467,-2.76855 1.204224,-5.48193 3.991393,-6.05485 z"
       inkscape:connector-curvature="0"
       style="font-family:none;display:inline;mix-blend-mode:normal;fill:#fefefd;fill-rule:nonzero;stroke:none;stroke-width:1.21853077;stroke-linecap:butt;stroke-linejoin:miter;stroke-miterlimit:10;stroke-dasharray:none;stroke-dashoffset:0" />
    <path
       id="path79"
       d="m 87.490737,251.31585 c 2.755117,-0.52844 5.425178,1.24372 5.988692,3.97489 0.563697,2.73296 -1.188822,5.40542 -3.93086,5.99792 -1.80248,0.38965 -3.676593,-0.21531 -4.906416,-1.57999 -1.229651,-1.36648 -1.625387,-3.28453 -1.035897,-5.0211 0.589492,-1.73657 2.073052,-3.02475 3.884494,-3.37172 z"
       inkscape:connector-curvature="0"
       style="font-family:none;display:inline;mix-blend-mode:normal;fill:#fefefd;fill-rule:nonzero;stroke:none;stroke-width:1.21853077;stroke-linecap:butt;stroke-linejoin:miter;stroke-miterlimit:10;stroke-dasharray:none;stroke-dashoffset:0" />
    <path
       id="path81"
       d="m 90.785384,223.24255 c 2.780544,-0.32205 5.303229,1.64227 5.654554,4.4019 0.35115,2.75964 -1.600315,5.28444 -4.373879,5.65986 -2.812241,0.38077 -5.397062,-1.59066 -5.753044,-4.38767 -0.355983,-2.79879 1.653319,-5.34671 4.472357,-5.67409 z"
       inkscape:connector-curvature="0"
       style="font-family:none;display:inline;mix-blend-mode:normal;fill:#fefefd;fill-rule:nonzero;stroke:none;stroke-width:1.21853077;stroke-linecap:butt;stroke-linejoin:miter;stroke-miterlimit:10;stroke-dasharray:none;stroke-dashoffset:0" />
    <path
       id="path83"
       d="m 61.631221,247.79112 c 1.797468,-0.39855 3.671215,0.20283 4.894595,1.57109 1.223381,1.36826 1.604081,3.28809 0.994359,5.01399 -0.609538,1.72766 -2.113698,2.98917 -3.929075,3.29876 -2.711427,0.46083 -5.29857,-1.30954 -5.830399,-3.99268 -0.531829,-2.68136 1.185594,-5.2951 3.87052,-5.89116 z"
       inkscape:connector-curvature="0"
       style="font-family:none;display:inline;mix-blend-mode:normal;fill:#fefefd;fill-rule:nonzero;stroke:none;stroke-width:1.21853077;stroke-linecap:butt;stroke-linejoin:miter;stroke-miterlimit:10;stroke-dasharray:none;stroke-dashoffset:0" />
    <path
       id="path85"
       d="m 6.2211074,258.65178 c 2.7105234,-0.64232 5.4326966,1.01596 6.0887976,3.70622 0.6561,2.69025 -1.000801,5.40186 -3.7061414,6.06552 -2.7205586,0.66544 -5.4681463,-0.99283 -6.1280122,-3.69733 -0.6598536,-2.70627 1.0194303,-5.43032 3.745356,-6.07442 z"
       inkscape:connector-curvature="0"
       style="font-family:none;display:inline;mix-blend-mode:normal;fill:#fefefd;fill-rule:nonzero;stroke:none;stroke-width:1.21853077;stroke-linecap:butt;stroke-linejoin:miter;stroke-miterlimit:10;stroke-dasharray:none;stroke-dashoffset:0" />
    <path
       id="path87"
       d="m 182.67615,153.71229 c 1.32332,0.37722 6.77409,2.64222 7.8288,3.40553 l -0.0197,0.32204 c -0.68404,0.86472 -1.73337,1.18856 -2.75225,1.58 -1.98584,-0.0374 -6.26374,-1.77926 -8.23527,-2.58705 1.05112,-0.78288 2.18282,-1.83799 3.17844,-2.72052 z"
       inkscape:connector-curvature="0"
       style="font-family:none;display:inline;mix-blend-mode:normal;fill:#fefefd;fill-rule:nonzero;stroke:none;stroke-width:1.21853077;stroke-linecap:butt;stroke-linejoin:miter;stroke-miterlimit:10;stroke-dasharray:none;stroke-dashoffset:0" />
    <path
       id="path89"
       d="m 199.46005,143.11426 c 5.93068,0.28557 4.65752,4.76381 0.70373,5.12323 -2.00554,-1.07113 -3.11934,-1.67928 -4.86165,-3.11783 1.34299,-1.14033 2.41023,-1.70098 4.15792,-2.00542 z"
       inkscape:connector-curvature="0"
       style="font-family:none;display:inline;mix-blend-mode:normal;fill:#fefefd;fill-rule:nonzero;stroke:none;stroke-width:1.21853077;stroke-linecap:butt;stroke-linejoin:miter;stroke-miterlimit:10;stroke-dasharray:none;stroke-dashoffset:0" />
    <path
       id="path91"
       d="m 156.49845,108.31623 c 0.53541,0.0547 1.2266,0.53591 1.63667,0.87558 3.32168,2.74345 0.94189,4.47361 -1.06544,6.51764 -0.40291,0.39873 -0.39217,0.44925 -0.90788,0.65316 l -0.28113,-0.18789 c -0.28293,-1.83639 -1.2678,-4.06243 -1.3233,-5.70825 0.35992,-1.01614 1.0726,-1.52644 1.94108,-2.15024 z"
       inkscape:connector-curvature="0"
       style="font-family:none;display:inline;mix-blend-mode:normal;fill:#fefefd;fill-rule:nonzero;stroke:none;stroke-width:1.21853077;stroke-linecap:butt;stroke-linejoin:miter;stroke-miterlimit:10;stroke-dasharray:none;stroke-dashoffset:0" />
    <path
       id="path93"
       d="m 190.25603,148.38161 c 1.58833,0.016 4.88135,2.33262 6.33537,3.27208 -1.29644,1.04798 -1.65457,1.11917 -3.22677,1.46078 -0.90429,0.36654 -5.68356,-0.90565 -5.79997,-2.27746 0.62136,-0.8327 1.85334,-1.76326 2.69137,-2.45539 z"
       inkscape:connector-curvature="0"
       style="font-family:none;display:inline;mix-blend-mode:normal;fill:#fefefd;fill-rule:nonzero;stroke:none;stroke-width:1.21853077;stroke-linecap:butt;stroke-linejoin:miter;stroke-miterlimit:10;stroke-dasharray:none;stroke-dashoffset:0" />
    <path
       id="path95"
       d="m 165.50369,100.67907 c 3.47748,0.8786 0.43514,6.36764 -2.05926,6.84538 -0.96697,-1.32022 -1.46476,-1.98691 -2.19894,-3.4347 1.39314,-1.8161 2.20252,-2.47727 4.2582,-3.41068 z"
       inkscape:connector-curvature="0"
       style="font-family:none;display:inline;mix-blend-mode:normal;fill:#fefefd;fill-rule:nonzero;stroke:none;stroke-width:1.21853077;stroke-linecap:butt;stroke-linejoin:miter;stroke-miterlimit:10;stroke-dasharray:none;stroke-dashoffset:0" />
    <path
       id="path97"
       d="m 152.31367,111.88207 0.27576,0.11551 c 0.5748,1.65543 0.0232,9.58152 -1.76381,10.48629 l -0.15399,-0.28061 c -0.41723,-2.22194 -1.01173,-5.60539 -1.16036,-7.79905 0.97055,-0.95653 1.70471,-1.71896 2.8024,-2.52212 z"
       inkscape:connector-curvature="0"
       style="font-family:none;display:inline;mix-blend-mode:normal;fill:#fefefd;fill-rule:nonzero;stroke:none;stroke-width:1.21853077;stroke-linecap:butt;stroke-linejoin:miter;stroke-miterlimit:10;stroke-dasharray:none;stroke-dashoffset:0" />
    <path
       id="path99"
       d="m 204.81951,66.666046 c 1.06902,-0.369556 2.23654,0.19732 2.59826,1.262213 0.36349,1.064893 -0.21668,2.219635 -1.29107,2.571578 -1.06186,0.347851 -2.20788,-0.220276 -2.56602,-1.27289 -0.35992,-1.052442 0.20235,-2.19579 1.25885,-2.560901 z"
       inkscape:connector-curvature="0"
       style="font-family:none;display:inline;mix-blend-mode:normal;fill:#fefefd;fill-rule:nonzero;stroke:none;stroke-width:1.21853077;stroke-linecap:butt;stroke-linejoin:miter;stroke-miterlimit:10;stroke-dasharray:none;stroke-dashoffset:0" />
  </g>
</svg>
